# xmcd
# Copyright (C) 1995-1998 Ti Kan
#
# Track frame offsets:
#       150
#       14002
#       35840
#       61202
#       79635
#       95452
#       111837
#       134135
#       152545
#       171077
#       198387
#       212517
#       232635
#
# Disc length: 3575 seconds
#
# Revision: 0
# Processed by: cddbd v1.4b42PL1 Copyright (c) Steve Scherf et al.
# Submitted via: CD-Transfer v1.0
#
DISCID=a80df50d
DTITLE=Deteil - Nüt Nöis
DYEAR=2001
DGENRE=
TTITLE0=H.W. Us M.
TTITLE1=Viu Viu Besser
TTITLE2=Amerika
TTITLE3=Nüt Nöis
TTITLE4=I Chome Zrogg
TTITLE5=Wiudi Ziite
TTITLE6=Schmierseife
TTITLE7=Nienemeh
TTITLE8=Friitig
TTITLE9=Gleis 7
TTITLE10=Radio
TTITLE11=Rückgabegarantie
TTITLE12=Ond Öberhaupt
EXTD=
EXTT0=
EXTT1=
EXTT2=
EXTT3=
EXTT4=
EXTT5=
EXTT6=
EXTT7=
EXTT8=
EXTT9=
EXTT10=
EXTT11=
EXTT12=
PLAYORDER=
